<svg width="502" height="589" viewBox="0 0 502 589" fill="none" xmlns="http://www.w3.org/2000/svg">
<rect width="502" height="589" fill="white"/>
<rect x="13.5" y="131" width="475" height="124" fill="#300674"/>
<rect x="13.5" y="7" width="475" height="124" fill="white"/>
<rect x="13.5" y="277" width="475" height="124" fill="white"/>
<rect x="13.5" y="401" width="475" height="124" fill="#1F1F1F"/>
<path d="M422.797 70.0169C421.394 68.7662 419.73 67.7112 417.816 66.852C415.901 65.9928 413.792 65.3076 411.497 64.7965L406.766 63.6654C405.624 63.4044 404.536 63.0998 403.525 62.7409C402.513 62.3603 401.621 61.9253 400.849 61.4358C400.077 60.9247 399.468 60.3156 399.022 59.6087C398.598 58.9018 398.402 58.0861 398.435 57.1399C398.435 56.0088 398.761 54.9973 399.414 54.1055C400.077 53.2137 401.045 52.5176 402.296 52.0282C403.546 51.517 405.08 51.256 406.896 51.256C409.572 51.256 411.682 51.8324 413.237 52.9744C414.281 53.7357 415.01 54.7146 415.456 55.8891C415.847 56.9332 416.739 57.8033 417.859 57.8033H424.341C425.559 57.8033 426.549 56.8027 426.375 55.5955C426.049 53.3551 425.266 51.3322 424.037 49.5268C422.405 47.145 420.132 45.2852 417.207 43.9474C414.292 42.6097 410.888 41.9463 406.983 41.9463C406.635 41.9463 406.298 41.9463 405.961 41.9572H405.994L355.127 41.9463C353.92 41.968 352.941 42.9469 352.941 44.1432V49.1352C352.941 50.3316 353.92 51.3104 355.116 51.3104H378.347V51.6802L358.074 92.9106C357.368 94.3571 358.412 96.0428 360.021 96.0428H366.656C367.482 96.0428 368.243 95.5752 368.613 94.8247L387.059 57.1725C387.059 57.4118 387.048 57.651 387.048 57.9012C387.026 61.7839 388.309 64.8835 390.876 67.1783C393.443 69.4731 396.945 71.1589 401.382 72.2356L407.114 73.6712C409.028 74.1388 410.648 74.65 411.964 75.2156C413.302 75.7811 414.314 76.4663 414.999 77.2711C415.706 78.0759 416.054 79.0656 416.054 80.2511C416.054 81.5236 415.673 82.6438 414.901 83.6117C414.129 84.5906 413.041 85.3519 411.638 85.8957C410.246 86.4394 408.615 86.7222 406.733 86.7222C404.852 86.7222 403.09 86.4286 401.567 85.8521C400.055 85.254 398.848 84.373 397.945 83.2093C397.412 82.5024 397.021 81.6976 396.76 80.7949C396.445 79.6964 395.531 78.7937 394.389 78.7937H387.885C386.667 78.7937 385.667 79.8052 385.819 81.0124C386.156 83.8401 387.015 86.2763 388.418 88.321C390.18 90.8768 392.627 92.8018 395.77 94.0961C398.924 95.4012 402.622 96.0537 406.864 96.0537C411.105 96.0537 414.803 95.412 417.837 94.1287C420.883 92.8236 423.21 91.0073 424.82 88.6581C426.451 86.2981 427.267 83.503 427.288 80.2837C427.267 78.0868 426.864 76.1509 426.081 74.4542C425.309 72.7576 424.221 71.2894 422.818 70.0386L422.797 70.0169Z" fill="#300674"/>
<path d="M422.797 194.017C421.394 192.766 419.73 191.711 417.816 190.852C415.901 189.993 413.792 189.308 411.497 188.796L406.766 187.665C405.624 187.404 404.536 187.1 403.525 186.741C402.513 186.36 401.621 185.925 400.849 185.436C400.077 184.925 399.468 184.316 399.022 183.609C398.598 182.902 398.402 182.086 398.435 181.14C398.435 180.009 398.761 178.997 399.414 178.106C400.077 177.214 401.045 176.518 402.296 176.028C403.546 175.517 405.08 175.256 406.896 175.256C409.572 175.256 411.682 175.832 413.237 176.974C414.281 177.736 415.01 178.715 415.456 179.889C415.847 180.933 416.739 181.803 417.859 181.803H424.341C425.559 181.803 426.549 180.803 426.375 179.595C426.049 177.355 425.266 175.332 424.037 173.527C422.405 171.145 420.132 169.285 417.207 167.947C414.292 166.61 410.888 165.946 406.983 165.946C406.635 165.946 406.298 165.946 405.961 165.957H405.994L355.127 165.946C353.92 165.968 352.941 166.947 352.941 168.143V173.135C352.941 174.332 353.92 175.31 355.116 175.31H378.347V175.68L358.074 216.911C357.368 218.357 358.412 220.043 360.021 220.043H366.656C367.482 220.043 368.243 219.575 368.613 218.825L387.059 181.172C387.059 181.412 387.048 181.651 387.048 181.901C387.026 185.784 388.309 188.883 390.876 191.178C393.443 193.473 396.945 195.159 401.382 196.236L407.114 197.671C409.028 198.139 410.648 198.65 411.964 199.216C413.302 199.781 414.314 200.466 414.999 201.271C415.706 202.076 416.054 203.066 416.054 204.251C416.054 205.524 415.673 206.644 414.901 207.612C414.129 208.591 413.041 209.352 411.638 209.896C410.246 210.439 408.615 210.722 406.733 210.722C404.852 210.722 403.09 210.429 401.567 209.852C400.055 209.254 398.848 208.373 397.945 207.209C397.412 206.502 397.021 205.698 396.76 204.795C396.445 203.696 395.531 202.794 394.389 202.794H387.885C386.667 202.794 385.667 203.805 385.819 205.012C386.156 207.84 387.015 210.276 388.418 212.321C390.18 214.877 392.627 216.802 395.77 218.096C398.924 219.401 402.622 220.054 406.864 220.054C411.105 220.054 414.803 219.412 417.837 218.129C420.883 216.824 423.21 215.007 424.82 212.658C426.451 210.298 427.267 207.503 427.288 204.284C427.267 202.087 426.864 200.151 426.081 198.454C425.309 196.758 424.221 195.289 422.818 194.039L422.797 194.017Z" fill="white"/>
<path d="M422.797 340.017C421.394 338.766 419.73 337.711 417.816 336.852C415.901 335.993 413.792 335.308 411.497 334.796L406.766 333.665C405.624 333.404 404.536 333.1 403.525 332.741C402.513 332.36 401.621 331.925 400.849 331.436C400.077 330.925 399.468 330.316 399.022 329.609C398.598 328.902 398.402 328.086 398.435 327.14C398.435 326.009 398.761 324.997 399.414 324.106C400.077 323.214 401.045 322.518 402.296 322.028C403.546 321.517 405.08 321.256 406.896 321.256C409.572 321.256 411.682 321.832 413.237 322.974C414.281 323.736 415.01 324.715 415.456 325.889C415.847 326.933 416.739 327.803 417.859 327.803H424.341C425.559 327.803 426.549 326.803 426.375 325.595C426.049 323.355 425.266 321.332 424.037 319.527C422.405 317.145 420.132 315.285 417.207 313.947C414.292 312.61 410.888 311.946 406.983 311.946C406.635 311.946 406.298 311.946 405.961 311.957H405.994L355.127 311.946C353.92 311.968 352.941 312.947 352.941 314.143V319.135C352.941 320.332 353.92 321.31 355.116 321.31H378.347V321.68L358.074 362.911C357.368 364.357 358.412 366.043 360.021 366.043H366.656C367.482 366.043 368.243 365.575 368.613 364.825L387.059 327.172C387.059 327.412 387.048 327.651 387.048 327.901C387.026 331.784 388.309 334.883 390.876 337.178C393.443 339.473 396.945 341.159 401.382 342.236L407.114 343.671C409.028 344.139 410.648 344.65 411.964 345.216C413.302 345.781 414.314 346.466 414.999 347.271C415.706 348.076 416.054 349.066 416.054 350.251C416.054 351.524 415.673 352.644 414.901 353.612C414.129 354.591 413.041 355.352 411.638 355.896C410.246 356.439 408.615 356.722 406.733 356.722C404.852 356.722 403.09 356.429 401.567 355.852C400.055 355.254 398.848 354.373 397.945 353.209C397.412 352.502 397.021 351.698 396.76 350.795C396.445 349.696 395.531 348.794 394.389 348.794H387.885C386.667 348.794 385.667 349.805 385.819 351.012C386.156 353.84 387.015 356.276 388.418 358.321C390.18 360.877 392.627 362.802 395.77 364.096C398.924 365.401 402.622 366.054 406.864 366.054C411.105 366.054 414.803 365.412 417.837 364.129C420.883 362.824 423.21 361.007 424.82 358.658C426.451 356.298 427.267 353.503 427.288 350.284C427.267 348.087 426.864 346.151 426.081 344.454C425.309 342.758 424.221 341.289 422.818 340.039L422.797 340.017Z" fill="#1F1F1F"/>
<path d="M422.797 464.017C421.394 462.766 419.73 461.711 417.816 460.852C415.901 459.993 413.792 459.308 411.497 458.796L406.766 457.665C405.624 457.404 404.536 457.1 403.525 456.741C402.513 456.36 401.621 455.925 400.849 455.436C400.077 454.925 399.468 454.316 399.022 453.609C398.598 452.902 398.402 452.086 398.435 451.14C398.435 450.009 398.761 448.997 399.414 448.106C400.077 447.214 401.045 446.518 402.296 446.028C403.546 445.517 405.08 445.256 406.896 445.256C409.572 445.256 411.682 445.832 413.237 446.974C414.281 447.736 415.01 448.715 415.456 449.889C415.847 450.933 416.739 451.803 417.859 451.803H424.341C425.559 451.803 426.549 450.803 426.375 449.595C426.049 447.355 425.266 445.332 424.037 443.527C422.405 441.145 420.132 439.285 417.207 437.947C414.292 436.61 410.888 435.946 406.983 435.946C406.635 435.946 406.298 435.946 405.961 435.957H405.994L355.127 435.946C353.92 435.968 352.941 436.947 352.941 438.143V443.135C352.941 444.332 353.92 445.31 355.116 445.31H378.347V445.68L358.074 486.911C357.368 488.357 358.412 490.043 360.021 490.043H366.656C367.482 490.043 368.243 489.575 368.613 488.825L387.059 451.172C387.059 451.412 387.048 451.651 387.048 451.901C387.026 455.784 388.309 458.883 390.876 461.178C393.443 463.473 396.945 465.159 401.382 466.236L407.114 467.671C409.028 468.139 410.648 468.65 411.964 469.216C413.302 469.781 414.314 470.466 414.999 471.271C415.706 472.076 416.054 473.066 416.054 474.251C416.054 475.524 415.673 476.644 414.901 477.612C414.129 478.591 413.041 479.352 411.638 479.896C410.246 480.439 408.615 480.722 406.733 480.722C404.852 480.722 403.09 480.429 401.567 479.852C400.055 479.254 398.848 478.373 397.945 477.209C397.412 476.502 397.021 475.698 396.76 474.795C396.445 473.696 395.531 472.794 394.389 472.794H387.885C386.667 472.794 385.667 473.805 385.819 475.012C386.156 477.84 387.015 480.276 388.418 482.321C390.18 484.877 392.627 486.802 395.77 488.096C398.924 489.401 402.622 490.054 406.864 490.054C411.105 490.054 414.803 489.412 417.837 488.129C420.883 486.824 423.21 485.007 424.82 482.658C426.451 480.298 427.267 477.503 427.288 474.284C427.267 472.087 426.864 470.151 426.081 468.454C425.309 466.758 424.221 465.289 422.818 464.039L422.797 464.017Z" fill="white"/>
<path fill-rule="evenodd" clip-rule="evenodd" d="M113.449 69.7035C112.67 69.0094 111.747 68.424 110.685 67.9472C109.622 67.4704 108.451 67.0901 107.178 66.8065L104.553 66.1788C103.919 66.0339 103.315 65.8649 102.754 65.6658C102.193 65.4545 101.698 65.2131 101.269 64.9415C100.841 64.6579 100.503 64.3199 100.255 63.9276C100.02 63.5353 99.9113 63.0826 99.9294 62.5575C99.9294 61.9298 100.111 61.3685 100.473 60.8736C100.841 60.3787 101.378 59.9925 102.072 59.7209C102.766 59.4372 103.617 59.2924 104.625 59.2924C106.11 59.2924 107.281 59.6122 108.144 60.246C108.723 60.6684 109.127 61.2116 109.375 61.8635C109.592 62.4429 110.087 62.9257 110.709 62.9257H114.306C114.982 62.9257 115.531 62.3704 115.434 61.7005C115.253 60.4572 114.819 59.3346 114.137 58.3327C113.232 57.011 111.97 55.9789 110.347 55.2366C108.729 54.4942 106.84 54.126 104.673 54.126C104.48 54.126 104.293 54.126 104.106 54.1321L104.106 54.1321L75.8964 54.126C75.2264 54.1381 74.6833 54.6813 74.6833 55.3452V58.1155C74.6833 58.7793 75.2264 59.3225 75.8903 59.3225H88.782V59.5277L77.532 82.408C77.1397 83.2107 77.7191 84.1462 78.6123 84.1462H82.2939C82.7526 84.1462 83.1751 83.8867 83.3803 83.4703L93.6164 62.5756C93.6164 62.6413 93.6149 62.7069 93.6134 62.7733C93.6119 62.8412 93.6104 62.9098 93.6104 62.98C93.5983 65.1347 94.3105 66.8547 95.7348 68.1282C97.1592 69.4017 99.1026 70.3372 101.565 70.9347L104.746 71.7314C105.808 71.9909 106.707 72.2746 107.438 72.5884C108.18 72.9022 108.741 73.2825 109.121 73.7291C109.514 74.1757 109.707 74.7249 109.707 75.3828C109.707 76.0889 109.496 76.7106 109.067 77.2477C108.639 77.7909 108.035 78.2134 107.256 78.5152C106.484 78.817 105.579 78.9739 104.534 78.9739C103.49 78.9739 102.513 78.8109 101.668 78.491C100.829 78.1591 100.159 77.6702 99.6578 77.0244C99.3621 76.6321 99.1448 76.1855 99 75.6846C98.825 75.075 98.318 74.5741 97.6843 74.5741H94.0751C93.3991 74.5741 92.8439 75.1354 92.9283 75.8053C93.1154 77.3745 93.5922 78.7264 94.3708 79.8611C95.3486 81.2794 96.7065 82.3477 98.4508 83.0659C100.201 83.7901 102.253 84.1523 104.607 84.1523C106.961 84.1523 109.013 83.7962 110.697 83.084C112.387 82.3598 113.678 81.3518 114.571 80.0482C115.477 78.7385 115.929 77.1874 115.941 75.4009C115.929 74.1818 115.706 73.1074 115.271 72.1659C114.843 71.2244 114.239 70.4096 113.461 69.7155L113.449 69.7035ZM160.41 72.6427C160.479 72.6153 160.544 72.5845 160.611 72.5528L160.632 72.5425L160.676 72.522C162.263 71.7676 163.476 70.6933 164.309 69.281C165.148 67.8627 165.565 66.1728 165.565 64.2052C165.565 62.2377 165.148 60.5477 164.321 59.0992C163.507 57.6447 162.312 56.5221 160.742 55.7315C159.185 54.9288 157.302 54.5304 155.099 54.5304H144.785C144.121 54.5304 143.578 55.0736 143.578 55.7375V82.9331C143.578 83.597 144.121 84.1402 144.785 84.1402H148.545C149.209 84.1402 149.752 83.597 149.752 82.9331V73.6446H154.26L159.451 83.4944C159.662 83.8928 160.072 84.1402 160.519 84.1402H164.581C165.492 84.1402 166.078 83.1625 165.643 82.3598L160.404 72.6367L160.41 72.6427ZM158.624 66.6496C158.244 67.3074 157.664 67.7963 156.886 68.1222C156.107 68.4481 155.129 68.6111 153.953 68.6111H149.758V60.8555C149.758 60.1916 150.301 59.6485 150.965 59.6485H153.922C155.111 59.6485 156.095 59.8295 156.874 60.1856C157.664 60.5296 158.244 61.0426 158.624 61.7186C159.016 62.3946 159.209 63.2214 159.209 64.2052C159.209 65.189 159.016 65.9917 158.624 66.6496ZM117.305 54.5365H138.87C139.534 54.5365 140.077 55.0797 140.077 55.7436V58.4897C140.077 59.1536 139.534 59.6968 138.87 59.6968H132.346C131.682 59.6968 131.139 60.2399 131.139 60.9038V82.9392C131.139 83.6031 130.595 84.1463 129.932 84.1463H126.244C125.58 84.1463 125.037 83.6031 125.037 82.9392V60.9038C125.037 60.2399 124.494 59.6968 123.83 59.6968H117.305C116.642 59.6968 116.098 59.1536 116.098 58.4897V55.7436C116.098 55.0797 116.642 54.5365 117.305 54.5365ZM236.421 55.9065C234.356 54.7296 232.039 54.1381 229.462 54.1381C226.885 54.1381 224.537 54.7296 222.479 55.9065C220.415 57.0774 218.785 58.7794 217.59 61.0125C216.395 63.2456 215.791 65.9555 215.791 69.1362C215.791 72.3168 216.389 75.0147 217.59 77.2478C218.785 79.4809 220.415 81.1889 222.479 82.3658C224.543 83.5427 226.873 84.1342 229.462 84.1342C232.051 84.1342 234.356 83.5487 236.421 82.3779C238.491 81.201 240.126 79.4929 241.321 77.2598C242.528 75.0267 243.132 72.3168 243.132 69.1362C243.132 65.9555 242.528 63.2456 241.321 61.0125C240.126 58.7794 238.491 57.0774 236.421 55.9065ZM235.95 74.3508C235.34 75.7691 234.483 76.8434 233.367 77.5737C232.256 78.304 230.952 78.6721 229.462 78.6721C227.971 78.6721 226.667 78.304 225.557 77.5737C224.446 76.8434 223.577 75.7691 222.962 74.3508C222.352 72.9324 222.05 71.1942 222.05 69.1362C222.05 67.0781 222.352 65.3338 222.962 63.9215C223.577 62.5032 224.446 61.4289 225.557 60.6986C226.667 59.9683 227.971 59.6002 229.462 59.6002C230.952 59.6002 232.256 59.9683 233.367 60.6986C234.477 61.4289 235.34 62.5032 235.95 63.9215C236.565 65.3399 236.873 67.0781 236.873 69.1362C236.873 71.1942 236.565 72.9385 235.95 74.3508ZM265.717 69.7095C266.495 70.4036 267.099 71.2184 267.527 72.1599H267.545C267.98 73.1014 268.203 74.1757 268.215 75.3949C268.203 77.1814 267.75 78.7325 266.845 80.0421C265.952 81.3458 264.66 82.3537 262.97 83.078C261.287 83.7901 259.234 84.1462 256.881 84.1462C254.527 84.1462 252.475 83.7841 250.725 83.0599C248.98 82.3416 247.622 81.2734 246.645 79.8551C245.866 78.7204 245.389 77.3685 245.202 75.7992C245.118 75.1293 245.673 74.568 246.349 74.568H249.958C250.598 74.568 251.099 75.069 251.274 75.6785C251.413 76.1795 251.63 76.6261 251.926 77.0184C252.427 77.6642 253.096 78.1531 253.935 78.485C254.78 78.8049 255.758 78.9678 256.802 78.9678C257.846 78.9678 258.752 78.8109 259.524 78.5092C260.303 78.2074 260.906 77.7849 261.335 77.2417C261.763 76.7046 261.975 76.0829 261.975 75.3768C261.975 74.7189 261.781 74.1697 261.389 73.7231C261.009 73.2764 260.448 72.8962 259.705 72.5824C258.975 72.2685 258.076 71.9849 257.013 71.7253L253.833 70.9287C251.37 70.3312 249.427 69.3957 248.003 68.1222C246.578 66.8487 245.866 65.1286 245.878 62.974C245.872 61.2056 246.343 59.6605 247.29 58.3388C248.25 57.017 249.566 55.9849 251.238 55.2426C252.909 54.5002 254.774 54.1321 256.941 54.1321C259.108 54.1321 260.997 54.5002 262.614 55.2426C264.238 55.9849 265.499 57.017 266.405 58.3388C267.087 59.3406 267.521 60.4632 267.702 61.7065C267.799 62.3765 267.25 62.9317 266.574 62.9317H262.976C262.355 62.9317 261.86 62.4489 261.643 61.8695C261.401 61.2177 260.991 60.6745 260.411 60.252C259.548 59.6183 258.377 59.2984 256.893 59.2984C255.885 59.2984 255.034 59.4432 254.34 59.7269C253.646 59.9985 253.109 60.3848 252.74 60.8797C252.378 61.3746 252.197 61.9359 252.197 62.5636C252.179 63.0886 252.288 63.5413 252.523 63.9336C252.771 64.3259 253.109 64.6639 253.537 64.9476C253.966 65.2191 254.46 65.4606 255.022 65.6718C255.583 65.871 256.187 66.04 256.82 66.1848L259.446 66.8125C260.719 67.0962 261.89 67.4764 262.952 67.9532C264.015 68.43 264.938 69.0154 265.717 69.7095ZM186.218 55.3573C186.049 54.8684 185.59 54.5365 185.077 54.5365H178.849C178.33 54.5365 177.871 54.8684 177.708 55.3573L168.45 82.5529C168.184 83.3375 168.763 84.1463 169.59 84.1463H173.64C174.165 84.1463 174.63 83.8083 174.787 83.3073L176.682 77.3926H187.226L189.121 83.3073C189.284 83.8083 189.749 84.1463 190.268 84.1463H194.317C195.144 84.1463 195.724 83.3315 195.458 82.5529L186.212 55.3573H186.218ZM178.251 72.51L181.812 61.4169C181.83 61.3505 181.891 61.3082 181.963 61.3082C182.035 61.3082 182.09 61.3505 182.114 61.4169L185.669 72.51H178.257H178.251ZM216.564 55.7436V58.4897C216.564 59.1536 216.021 59.6968 215.357 59.6968H208.833C208.169 59.6968 207.626 60.2399 207.626 60.9038V82.9392C207.626 83.6031 207.082 84.1463 206.418 84.1463H202.731C202.067 84.1463 201.524 83.6031 201.524 82.9392V60.9038C201.524 60.2399 200.981 59.6968 200.317 59.6968H193.792C193.128 59.6968 192.585 59.1536 192.585 58.4897V55.7436C192.585 55.0797 193.128 54.5365 193.792 54.5365H215.357C216.021 54.5365 216.564 55.0797 216.564 55.7436Z" fill="#300674"/>
<path fill-rule="evenodd" clip-rule="evenodd" d="M113.449 193.564C112.67 192.87 111.747 192.285 110.685 191.808C109.622 191.331 108.451 190.951 107.178 190.667L104.553 190.04C103.919 189.895 103.315 189.726 102.754 189.527C102.193 189.315 101.698 189.074 101.269 188.802C100.841 188.519 100.503 188.181 100.255 187.788C100.02 187.396 99.9113 186.943 99.9294 186.418C99.9294 185.791 100.111 185.229 100.473 184.734C100.841 184.24 101.378 183.853 102.072 183.582C102.766 183.298 103.617 183.153 104.625 183.153C106.11 183.153 107.281 183.473 108.144 184.107C108.723 184.529 109.127 185.072 109.375 185.724C109.592 186.304 110.087 186.787 110.709 186.787H114.306C114.982 186.787 115.531 186.231 115.434 185.561C115.253 184.318 114.819 183.195 114.137 182.194C113.232 180.872 111.97 179.84 110.347 179.097C108.729 178.355 106.84 177.987 104.673 177.987C104.48 177.987 104.293 177.987 104.106 177.993L104.106 177.993L75.8964 177.987C75.2264 177.999 74.6833 178.542 74.6833 179.206V181.976C74.6833 182.64 75.2264 183.183 75.8903 183.183H88.782V183.389L77.532 206.269C77.1397 207.072 77.7191 208.007 78.6123 208.007H82.2939C82.7526 208.007 83.1751 207.748 83.3803 207.331L93.6164 186.436C93.6164 186.502 93.6149 186.568 93.6134 186.634C93.6119 186.702 93.6104 186.771 93.6104 186.841C93.5983 188.995 94.3105 190.716 95.7348 191.989C97.1592 193.263 99.1026 194.198 101.565 194.796L104.746 195.592C105.808 195.852 106.707 196.135 107.438 196.449C108.18 196.763 108.741 197.143 109.121 197.59C109.514 198.037 109.707 198.586 109.707 199.244C109.707 199.95 109.496 200.571 109.067 201.109C108.639 201.652 108.035 202.074 107.256 202.376C106.484 202.678 105.579 202.835 104.534 202.835C103.49 202.835 102.513 202.672 101.668 202.352C100.829 202.02 100.159 201.531 99.6578 200.885C99.3621 200.493 99.1448 200.046 99 199.545C98.825 198.936 98.318 198.435 97.6843 198.435H94.0751C93.3991 198.435 92.8439 198.996 92.9283 199.666C93.1154 201.235 93.5922 202.587 94.3708 203.722C95.3486 205.14 96.7065 206.209 98.4508 206.927C100.201 207.651 102.253 208.013 104.607 208.013C106.961 208.013 109.013 207.657 110.697 206.945C112.387 206.221 113.678 205.213 114.571 203.909C115.477 202.599 115.929 201.048 115.941 199.262C115.929 198.043 115.706 196.968 115.271 196.027C114.843 195.085 114.239 194.27 113.461 193.576L113.449 193.564ZM160.41 196.504C160.479 196.476 160.544 196.445 160.611 196.414L160.632 196.403L160.676 196.383C162.263 195.628 163.476 194.554 164.309 193.142C165.148 191.724 165.565 190.034 165.565 188.066C165.565 186.098 165.148 184.409 164.321 182.96C163.507 181.506 162.312 180.383 160.742 179.592C159.185 178.79 157.302 178.391 155.099 178.391H144.785C144.121 178.391 143.578 178.934 143.578 179.598V206.794C143.578 207.458 144.121 208.001 144.785 208.001H148.545C149.209 208.001 149.752 207.458 149.752 206.794V197.505H154.26L159.451 207.355C159.662 207.754 160.072 208.001 160.519 208.001H164.581C165.492 208.001 166.078 207.023 165.643 206.221L160.404 196.498L160.41 196.504ZM158.624 190.51C158.244 191.168 157.664 191.657 156.886 191.983C156.107 192.309 155.129 192.472 153.953 192.472H149.758V184.716C149.758 184.052 150.301 183.509 150.965 183.509H153.922C155.111 183.509 156.095 183.69 156.874 184.046C157.664 184.39 158.244 184.903 158.624 185.579C159.016 186.255 159.209 187.082 159.209 188.066C159.209 189.05 159.016 189.853 158.624 190.51ZM117.305 178.397H138.87C139.534 178.397 140.077 178.94 140.077 179.604V182.351C140.077 183.014 139.534 183.558 138.87 183.558H132.346C131.682 183.558 131.139 184.101 131.139 184.765V206.8C131.139 207.464 130.595 208.007 129.932 208.007H126.244C125.58 208.007 125.037 207.464 125.037 206.8V184.765C125.037 184.101 124.494 183.558 123.83 183.558H117.305C116.642 183.558 116.098 183.014 116.098 182.351V179.604C116.098 178.94 116.642 178.397 117.305 178.397ZM236.421 179.767C234.356 178.59 232.039 177.999 229.462 177.999C226.885 177.999 224.537 178.59 222.479 179.767C220.415 180.938 218.785 182.64 217.59 184.873C216.395 187.106 215.791 189.816 215.791 192.997C215.791 196.178 216.389 198.875 217.59 201.109C218.785 203.342 220.415 205.05 222.479 206.227C224.543 207.404 226.873 207.995 229.462 207.995C232.051 207.995 234.356 207.41 236.421 206.239C238.491 205.062 240.126 203.354 241.321 201.121C242.528 198.888 243.132 196.178 243.132 192.997C243.132 189.816 242.528 187.106 241.321 184.873C240.126 182.64 238.491 180.938 236.421 179.767ZM235.95 198.212C235.34 199.63 234.483 200.704 233.367 201.435C232.256 202.165 230.952 202.533 229.462 202.533C227.971 202.533 226.667 202.165 225.557 201.435C224.446 200.704 223.577 199.63 222.962 198.212C222.352 196.793 222.05 195.055 222.05 192.997C222.05 190.939 222.352 189.195 222.962 187.782C223.577 186.364 224.446 185.29 225.557 184.559C226.667 183.829 227.971 183.461 229.462 183.461C230.952 183.461 232.256 183.829 233.367 184.559C234.477 185.29 235.34 186.364 235.95 187.782C236.565 189.201 236.873 190.939 236.873 192.997C236.873 195.055 236.565 196.799 235.95 198.212ZM265.717 193.57C266.495 194.264 267.099 195.079 267.527 196.021H267.545C267.98 196.962 268.203 198.037 268.215 199.256C268.203 201.042 267.75 202.593 266.845 203.903C265.952 205.207 264.66 206.215 262.97 206.939C261.287 207.651 259.234 208.007 256.881 208.007C254.527 208.007 252.475 207.645 250.725 206.921C248.98 206.202 247.622 205.134 246.645 203.716C245.866 202.581 245.389 201.229 245.202 199.66C245.118 198.99 245.673 198.429 246.349 198.429H249.958C250.598 198.429 251.099 198.93 251.274 199.539C251.413 200.04 251.63 200.487 251.926 200.879C252.427 201.525 253.096 202.014 253.935 202.346C254.78 202.666 255.758 202.829 256.802 202.829C257.846 202.829 258.752 202.672 259.524 202.37C260.303 202.068 260.906 201.646 261.335 201.103C261.763 200.565 261.975 199.944 261.975 199.238C261.975 198.58 261.781 198.031 261.389 197.584C261.009 197.137 260.448 196.757 259.705 196.443C258.975 196.129 258.076 195.846 257.013 195.586L253.833 194.789C251.37 194.192 249.427 193.257 248.003 191.983C246.578 190.71 245.866 188.989 245.878 186.835C245.872 185.066 246.343 183.521 247.29 182.2C248.25 180.878 249.566 179.846 251.238 179.103C252.909 178.361 254.774 177.993 256.941 177.993C259.108 177.993 260.997 178.361 262.614 179.103C264.238 179.846 265.499 180.878 266.405 182.2C267.087 183.201 267.521 184.324 267.702 185.567C267.799 186.237 267.25 186.793 266.574 186.793H262.976C262.355 186.793 261.86 186.31 261.643 185.73C261.401 185.079 260.991 184.535 260.411 184.113C259.548 183.479 258.377 183.159 256.893 183.159C255.885 183.159 255.034 183.304 254.34 183.588C253.646 183.859 253.109 184.246 252.74 184.741C252.378 185.235 252.197 185.797 252.197 186.424C252.179 186.949 252.288 187.402 252.523 187.794C252.771 188.187 253.109 188.525 253.537 188.808C253.966 189.08 254.46 189.321 255.022 189.533C255.583 189.732 256.187 189.901 256.82 190.046L259.446 190.673C260.719 190.957 261.89 191.337 262.952 191.814C264.015 192.291 264.938 192.876 265.717 193.57ZM186.218 179.218C186.049 178.729 185.59 178.397 185.077 178.397H178.849C178.33 178.397 177.871 178.729 177.708 179.218L168.45 206.414C168.184 207.198 168.763 208.007 169.59 208.007H173.64C174.165 208.007 174.63 207.669 174.787 207.168L176.682 201.253H187.226L189.121 207.168C189.284 207.669 189.749 208.007 190.268 208.007H194.317C195.144 208.007 195.724 207.192 195.458 206.414L186.212 179.218H186.218ZM178.251 196.371L181.812 185.278C181.83 185.211 181.891 185.169 181.963 185.169C182.035 185.169 182.09 185.211 182.114 185.278L185.669 196.371H178.257H178.251ZM216.564 179.604V182.351C216.564 183.014 216.021 183.558 215.357 183.558H208.833C208.169 183.558 207.626 184.101 207.626 184.765V206.8C207.626 207.464 207.082 208.007 206.418 208.007H202.731C202.067 208.007 201.524 207.464 201.524 206.8V184.765C201.524 184.101 200.981 183.558 200.317 183.558H193.792C193.128 183.558 192.585 183.014 192.585 182.351V179.604C192.585 178.94 193.128 178.397 193.792 178.397H215.357C216.021 178.397 216.564 178.94 216.564 179.604Z" fill="white"/>
<path fill-rule="evenodd" clip-rule="evenodd" d="M113.449 339.703C112.67 339.009 111.747 338.424 110.685 337.947C109.622 337.47 108.451 337.09 107.178 336.806L104.553 336.179C103.919 336.034 103.315 335.865 102.754 335.666C102.193 335.455 101.698 335.213 101.269 334.942C100.841 334.658 100.503 334.32 100.255 333.928C100.02 333.535 99.9113 333.083 99.9294 332.558C99.9294 331.93 100.111 331.369 100.473 330.874C100.841 330.379 101.378 329.992 102.072 329.721C102.766 329.437 103.617 329.292 104.625 329.292C106.11 329.292 107.281 329.612 108.144 330.246C108.723 330.668 109.127 331.212 109.375 331.863C109.592 332.443 110.087 332.926 110.709 332.926H114.306C114.982 332.926 115.531 332.37 115.434 331.7C115.253 330.457 114.819 329.335 114.137 328.333C113.232 327.011 111.97 325.979 110.347 325.237C108.729 324.494 106.84 324.126 104.673 324.126C104.48 324.126 104.293 324.126 104.106 324.132L104.106 324.132L75.8964 324.126C75.2264 324.138 74.6833 324.681 74.6833 325.345V328.115C74.6833 328.779 75.2264 329.323 75.8903 329.323H88.782V329.528L77.532 352.408C77.1397 353.211 77.7191 354.146 78.6123 354.146H82.2939C82.7526 354.146 83.1751 353.887 83.3803 353.47L93.6164 332.576C93.6164 332.641 93.6149 332.707 93.6134 332.773C93.6119 332.841 93.6104 332.91 93.6104 332.98C93.5983 335.135 94.3105 336.855 95.7348 338.128C97.1592 339.402 99.1026 340.337 101.565 340.935L104.746 341.731C105.808 341.991 106.707 342.275 107.438 342.588C108.18 342.902 108.741 343.282 109.121 343.729C109.514 344.176 109.707 344.725 109.707 345.383C109.707 346.089 109.496 346.711 109.067 347.248C108.639 347.791 108.035 348.213 107.256 348.515C106.484 348.817 105.579 348.974 104.534 348.974C103.49 348.974 102.513 348.811 101.668 348.491C100.829 348.159 100.159 347.67 99.6578 347.024C99.3621 346.632 99.1448 346.186 99 345.685C98.825 345.075 98.318 344.574 97.6843 344.574H94.0751C93.3991 344.574 92.8439 345.135 92.9283 345.805C93.1154 347.374 93.5922 348.726 94.3708 349.861C95.3486 351.279 96.7065 352.348 98.4508 353.066C100.201 353.79 102.253 354.152 104.607 354.152C106.961 354.152 109.013 353.796 110.697 353.084C112.387 352.36 113.678 351.352 114.571 350.048C115.477 348.738 115.929 347.187 115.941 345.401C115.929 344.182 115.706 343.107 115.271 342.166C114.843 341.224 114.239 340.41 113.461 339.716L113.449 339.703ZM160.41 342.643C160.479 342.615 160.544 342.584 160.611 342.553L160.632 342.543L160.676 342.522C162.263 341.768 163.476 340.693 164.309 339.281C165.148 337.863 165.565 336.173 165.565 334.205C165.565 332.238 165.148 330.548 164.321 329.099C163.507 327.645 162.312 326.522 160.742 325.731C159.185 324.929 157.302 324.53 155.099 324.53H144.785C144.121 324.53 143.578 325.074 143.578 325.738V352.933C143.578 353.597 144.121 354.14 144.785 354.14H148.545C149.209 354.14 149.752 353.597 149.752 352.933V343.645H154.26L159.451 353.494C159.662 353.893 160.072 354.14 160.519 354.14H164.581C165.492 354.14 166.078 353.162 165.643 352.36L160.404 342.637L160.41 342.643ZM158.624 336.65C158.244 337.307 157.664 337.796 156.886 338.122C156.107 338.448 155.129 338.611 153.953 338.611H149.758V330.856C149.758 330.192 150.301 329.648 150.965 329.648H153.922C155.111 329.648 156.095 329.83 156.874 330.186C157.664 330.53 158.244 331.043 158.624 331.719C159.016 332.395 159.209 333.221 159.209 334.205C159.209 335.189 159.016 335.992 158.624 336.65ZM117.305 324.536H138.87C139.534 324.536 140.077 325.08 140.077 325.744V328.49C140.077 329.154 139.534 329.697 138.87 329.697H132.346C131.682 329.697 131.139 330.24 131.139 330.904V352.939C131.139 353.603 130.595 354.146 129.932 354.146H126.244C125.58 354.146 125.037 353.603 125.037 352.939V330.904C125.037 330.24 124.494 329.697 123.83 329.697H117.305C116.642 329.697 116.098 329.154 116.098 328.49V325.744C116.098 325.08 116.642 324.536 117.305 324.536ZM236.421 325.907C234.356 324.73 232.039 324.138 229.462 324.138C226.885 324.138 224.537 324.73 222.479 325.907C220.415 327.077 218.785 328.779 217.59 331.012C216.395 333.246 215.791 335.955 215.791 339.136C215.791 342.317 216.389 345.015 217.59 347.248C218.785 349.481 220.415 351.189 222.479 352.366C224.543 353.543 226.873 354.134 229.462 354.134C232.051 354.134 234.356 353.549 236.421 352.378C238.491 351.201 240.126 349.493 241.321 347.26C242.528 345.027 243.132 342.317 243.132 339.136C243.132 335.955 242.528 333.246 241.321 331.012C240.126 328.779 238.491 327.077 236.421 325.907ZM235.95 344.351C235.34 345.769 234.483 346.843 233.367 347.574C232.256 348.304 230.952 348.672 229.462 348.672C227.971 348.672 226.667 348.304 225.557 347.574C224.446 346.843 223.577 345.769 222.962 344.351C222.352 342.932 222.05 341.194 222.05 339.136C222.05 337.078 222.352 335.334 222.962 333.922C223.577 332.503 224.446 331.429 225.557 330.699C226.667 329.968 227.971 329.6 229.462 329.6C230.952 329.6 232.256 329.968 233.367 330.699C234.477 331.429 235.34 332.503 235.95 333.922C236.565 335.34 236.873 337.078 236.873 339.136C236.873 341.194 236.565 342.938 235.95 344.351ZM265.717 339.71C266.495 340.404 267.099 341.218 267.527 342.16H267.545C267.98 343.101 268.203 344.176 268.215 345.395C268.203 347.181 267.75 348.732 266.845 350.042C265.952 351.346 264.66 352.354 262.97 353.078C261.287 353.79 259.234 354.146 256.881 354.146C254.527 354.146 252.475 353.784 250.725 353.06C248.98 352.342 247.622 351.273 246.645 349.855C245.866 348.72 245.389 347.368 245.202 345.799C245.118 345.129 245.673 344.568 246.349 344.568H249.958C250.598 344.568 251.099 345.069 251.274 345.679C251.413 346.179 251.63 346.626 251.926 347.018C252.427 347.664 253.096 348.153 253.935 348.485C254.78 348.805 255.758 348.968 256.802 348.968C257.846 348.968 258.752 348.811 259.524 348.509C260.303 348.207 260.906 347.785 261.335 347.242C261.763 346.705 261.975 346.083 261.975 345.377C261.975 344.719 261.781 344.17 261.389 343.723C261.009 343.276 260.448 342.896 259.705 342.582C258.975 342.269 258.076 341.985 257.013 341.725L253.833 340.929C251.37 340.331 249.427 339.396 248.003 338.122C246.578 336.849 245.866 335.129 245.878 332.974C245.872 331.206 246.343 329.661 247.29 328.339C248.25 327.017 249.566 325.985 251.238 325.243C252.909 324.5 254.774 324.132 256.941 324.132C259.108 324.132 260.997 324.5 262.614 325.243C264.238 325.985 265.499 327.017 266.405 328.339C267.087 329.341 267.521 330.463 267.702 331.707C267.799 332.376 267.25 332.932 266.574 332.932H262.976C262.355 332.932 261.86 332.449 261.643 331.869C261.401 331.218 260.991 330.674 260.411 330.252C259.548 329.618 258.377 329.298 256.893 329.298C255.885 329.298 255.034 329.443 254.34 329.727C253.646 329.999 253.109 330.385 252.74 330.88C252.378 331.375 252.197 331.936 252.197 332.564C252.179 333.089 252.288 333.541 252.523 333.934C252.771 334.326 253.109 334.664 253.537 334.948C253.966 335.219 254.46 335.461 255.022 335.672C255.583 335.871 256.187 336.04 256.82 336.185L259.446 336.812C260.719 337.096 261.89 337.476 262.952 337.953C264.015 338.43 264.938 339.015 265.717 339.71ZM186.218 325.357C186.049 324.868 185.59 324.536 185.077 324.536H178.849C178.33 324.536 177.871 324.868 177.708 325.357L168.45 352.553C168.184 353.338 168.763 354.146 169.59 354.146H173.64C174.165 354.146 174.63 353.808 174.787 353.307L176.682 347.393H187.226L189.121 353.307C189.284 353.808 189.749 354.146 190.268 354.146H194.317C195.144 354.146 195.724 353.331 195.458 352.553L186.212 325.357H186.218ZM178.251 342.51L181.812 331.417C181.83 331.35 181.891 331.308 181.963 331.308C182.035 331.308 182.09 331.35 182.114 331.417L185.669 342.51H178.257H178.251ZM216.564 325.744V328.49C216.564 329.154 216.021 329.697 215.357 329.697H208.833C208.169 329.697 207.626 330.24 207.626 330.904V352.939C207.626 353.603 207.082 354.146 206.418 354.146H202.731C202.067 354.146 201.524 353.603 201.524 352.939V330.904C201.524 330.24 200.981 329.697 200.317 329.697H193.792C193.128 329.697 192.585 329.154 192.585 328.49V325.744C192.585 325.08 193.128 324.536 193.792 324.536H215.357C216.021 324.536 216.564 325.08 216.564 325.744Z" fill="#1F1F1F"/>
<path fill-rule="evenodd" clip-rule="evenodd" d="M113.449 339.564C112.67 338.87 111.747 338.285 110.685 337.808C109.622 337.331 108.451 336.951 107.178 336.667L104.553 336.04C103.919 335.895 103.315 335.726 102.754 335.527C102.193 335.315 101.698 335.074 101.269 334.802C100.841 334.519 100.503 334.181 100.255 333.788C100.02 333.396 99.9113 332.943 99.9294 332.418C99.9294 331.791 100.111 331.229 100.473 330.734C100.841 330.24 101.378 329.853 102.072 329.582C102.766 329.298 103.617 329.153 104.625 329.153C106.11 329.153 107.281 329.473 108.144 330.107C108.723 330.529 109.127 331.072 109.375 331.724C109.592 332.304 110.087 332.787 110.709 332.787H114.306C114.982 332.787 115.531 332.231 115.434 331.561C115.253 330.318 114.819 329.195 114.137 328.194C113.232 326.872 111.97 325.84 110.347 325.097C108.729 324.355 106.84 323.987 104.673 323.987C104.48 323.987 104.293 323.987 104.106 323.993L104.106 323.993L75.8964 323.987C75.2264 323.999 74.6833 324.542 74.6833 325.206V327.976C74.6833 328.64 75.2264 329.183 75.8903 329.183H88.782V329.389L77.532 352.269C77.1397 353.072 77.7191 354.007 78.6123 354.007H82.2939C82.7526 354.007 83.1751 353.748 83.3803 353.331L93.6164 332.436C93.6164 332.502 93.6149 332.568 93.6134 332.634C93.6119 332.702 93.6104 332.771 93.6104 332.841C93.5983 334.995 94.3105 336.716 95.7348 337.989C97.1592 339.263 99.1026 340.198 101.565 340.796L104.746 341.592C105.808 341.852 106.707 342.135 107.438 342.449C108.18 342.763 108.741 343.143 109.121 343.59C109.514 344.037 109.707 344.586 109.707 345.244C109.707 345.95 109.496 346.571 109.067 347.109C108.639 347.652 108.035 348.074 107.256 348.376C106.484 348.678 105.579 348.835 104.534 348.835C103.49 348.835 102.513 348.672 101.668 348.352C100.829 348.02 100.159 347.531 99.6578 346.885C99.3621 346.493 99.1448 346.046 99 345.545C98.825 344.936 98.318 344.435 97.6843 344.435H94.0751C93.3991 344.435 92.8439 344.996 92.9283 345.666C93.1154 347.235 93.5922 348.587 94.3708 349.722C95.3486 351.14 96.7065 352.209 98.4508 352.927C100.201 353.651 102.253 354.013 104.607 354.013C106.961 354.013 109.013 353.657 110.697 352.945C112.387 352.221 113.678 351.213 114.571 349.909C115.477 348.599 115.929 347.048 115.941 345.262C115.929 344.043 115.706 342.968 115.271 342.027C114.843 341.085 114.239 340.27 113.461 339.576L113.449 339.564ZM160.41 342.504C160.479 342.476 160.544 342.445 160.611 342.414L160.632 342.403L160.676 342.383C162.263 341.628 163.476 340.554 164.309 339.142C165.148 337.724 165.565 336.034 165.565 334.066C165.565 332.098 165.148 330.409 164.321 328.96C163.507 327.506 162.312 326.383 160.742 325.592C159.185 324.79 157.302 324.391 155.099 324.391H144.785C144.121 324.391 143.578 324.934 143.578 325.598V352.794C143.578 353.458 144.121 354.001 144.785 354.001H148.545C149.209 354.001 149.752 353.458 149.752 352.794V343.505H154.26L159.451 353.355C159.662 353.754 160.072 354.001 160.519 354.001H164.581C165.492 354.001 166.078 353.023 165.643 352.221L160.404 342.498L160.41 342.504ZM158.624 336.51C158.244 337.168 157.664 337.657 156.886 337.983C156.107 338.309 155.129 338.472 153.953 338.472H149.758V330.716C149.758 330.052 150.301 329.509 150.965 329.509H153.922C155.111 329.509 156.095 329.69 156.874 330.046C157.664 330.39 158.244 330.903 158.624 331.579C159.016 332.255 159.209 333.082 159.209 334.066C159.209 335.05 159.016 335.853 158.624 336.51ZM117.305 324.397H138.87C139.534 324.397 140.077 324.94 140.077 325.604V328.351C140.077 329.014 139.534 329.558 138.87 329.558H132.346C131.682 329.558 131.139 330.101 131.139 330.765V352.8C131.139 353.464 130.595 354.007 129.932 354.007H126.244C125.58 354.007 125.037 353.464 125.037 352.8V330.765C125.037 330.101 124.494 329.558 123.83 329.558H117.305C116.642 329.558 116.098 329.014 116.098 328.351V325.604C116.098 324.94 116.642 324.397 117.305 324.397ZM236.421 325.767C234.356 324.59 232.039 323.999 229.462 323.999C226.885 323.999 224.537 324.59 222.479 325.767C220.415 326.938 218.785 328.64 217.59 330.873C216.395 333.106 215.791 335.816 215.791 338.997C215.791 342.178 216.389 344.875 217.59 347.109C218.785 349.342 220.415 351.05 222.479 352.227C224.543 353.404 226.873 353.995 229.462 353.995C232.051 353.995 234.356 353.41 236.421 352.239C238.491 351.062 240.126 349.354 241.321 347.121C242.528 344.888 243.132 342.178 243.132 338.997C243.132 335.816 242.528 333.106 241.321 330.873C240.126 328.64 238.491 326.938 236.421 325.767ZM235.95 344.212C235.34 345.63 234.483 346.704 233.367 347.435C232.256 348.165 230.952 348.533 229.462 348.533C227.971 348.533 226.667 348.165 225.557 347.435C224.446 346.704 223.577 345.63 222.962 344.212C222.352 342.793 222.05 341.055 222.05 338.997C222.05 336.939 222.352 335.195 222.962 333.782C223.577 332.364 224.446 331.29 225.557 330.559C226.667 329.829 227.971 329.461 229.462 329.461C230.952 329.461 232.256 329.829 233.367 330.559C234.477 331.29 235.34 332.364 235.95 333.782C236.565 335.201 236.873 336.939 236.873 338.997C236.873 341.055 236.565 342.799 235.95 344.212ZM265.717 339.57C266.495 340.264 267.099 341.079 267.527 342.021H267.545C267.98 342.962 268.203 344.037 268.215 345.256C268.203 347.042 267.75 348.593 266.845 349.903C265.952 351.207 264.66 352.215 262.97 352.939C261.287 353.651 259.234 354.007 256.881 354.007C254.527 354.007 252.475 353.645 250.725 352.921C248.98 352.202 247.622 351.134 246.645 349.716C245.866 348.581 245.389 347.229 245.202 345.66C245.118 344.99 245.673 344.429 246.349 344.429H249.958C250.598 344.429 251.099 344.93 251.274 345.539C251.413 346.04 251.63 346.487 251.926 346.879C252.427 347.525 253.096 348.014 253.935 348.346C254.78 348.666 255.758 348.829 256.802 348.829C257.846 348.829 258.752 348.672 259.524 348.37C260.303 348.068 260.906 347.646 261.335 347.103C261.763 346.565 261.975 345.944 261.975 345.238C261.975 344.58 261.781 344.031 261.389 343.584C261.009 343.137 260.448 342.757 259.705 342.443C258.975 342.129 258.076 341.846 257.013 341.586L253.833 340.789C251.37 340.192 249.427 339.257 248.003 337.983C246.578 336.71 245.866 334.989 245.878 332.835C245.872 331.066 246.343 329.521 247.29 328.2C248.25 326.878 249.566 325.846 251.238 325.103C252.909 324.361 254.774 323.993 256.941 323.993C259.108 323.993 260.997 324.361 262.614 325.103C264.238 325.846 265.499 326.878 266.405 328.2C267.087 329.201 267.521 330.324 267.702 331.567C267.799 332.237 267.25 332.793 266.574 332.793H262.976C262.355 332.793 261.86 332.31 261.643 331.73C261.401 331.079 260.991 330.535 260.411 330.113C259.548 329.479 258.377 329.159 256.893 329.159C255.885 329.159 255.034 329.304 254.34 329.588C253.646 329.859 253.109 330.246 252.74 330.741C252.378 331.235 252.197 331.797 252.197 332.424C252.179 332.949 252.288 333.402 252.523 333.794C252.771 334.187 253.109 334.525 253.537 334.808C253.966 335.08 254.46 335.321 255.022 335.533C255.583 335.732 256.187 335.901 256.82 336.046L259.446 336.673C260.719 336.957 261.89 337.337 262.952 337.814C264.015 338.291 264.938 338.876 265.717 339.57ZM186.218 325.218C186.049 324.729 185.59 324.397 185.077 324.397H178.849C178.33 324.397 177.871 324.729 177.708 325.218L168.45 352.414C168.184 353.198 168.763 354.007 169.59 354.007H173.64C174.165 354.007 174.63 353.669 174.787 353.168L176.682 347.253H187.226L189.121 353.168C189.284 353.669 189.749 354.007 190.268 354.007H194.317C195.144 354.007 195.724 353.192 195.458 352.414L186.212 325.218H186.218ZM178.251 342.371L181.812 331.278C181.83 331.211 181.891 331.169 181.963 331.169C182.035 331.169 182.09 331.211 182.114 331.278L185.669 342.371H178.257H178.251ZM216.564 325.604V328.351C216.564 329.014 216.021 329.558 215.357 329.558H208.833C208.169 329.558 207.626 330.101 207.626 330.765V352.8C207.626 353.464 207.082 354.007 206.418 354.007H202.731C202.067 354.007 201.524 353.464 201.524 352.8V330.765C201.524 330.101 200.981 329.558 200.317 329.558H193.792C193.128 329.558 192.585 329.014 192.585 328.351V325.604C192.585 324.94 193.128 324.397 193.792 324.397H215.357C216.021 324.397 216.564 324.94 216.564 325.604Z" fill="#1F1F1F"/>
<path fill-rule="evenodd" clip-rule="evenodd" d="M113.449 463.564C112.67 462.87 111.747 462.285 110.685 461.808C109.622 461.331 108.451 460.951 107.178 460.667L104.553 460.04C103.919 459.895 103.315 459.726 102.754 459.527C102.193 459.315 101.698 459.074 101.269 458.802C100.841 458.519 100.503 458.181 100.255 457.788C100.02 457.396 99.9113 456.943 99.9294 456.418C99.9294 455.791 100.111 455.229 100.473 454.734C100.841 454.24 101.378 453.853 102.072 453.582C102.766 453.298 103.617 453.153 104.625 453.153C106.11 453.153 107.281 453.473 108.144 454.107C108.723 454.529 109.127 455.072 109.375 455.724C109.592 456.304 110.087 456.787 110.709 456.787H114.306C114.982 456.787 115.531 456.231 115.434 455.561C115.253 454.318 114.819 453.195 114.137 452.194C113.232 450.872 111.97 449.84 110.347 449.097C108.729 448.355 106.84 447.987 104.673 447.987C104.48 447.987 104.293 447.987 104.106 447.993L104.106 447.993L75.8964 447.987C75.2264 447.999 74.6833 448.542 74.6833 449.206V451.976C74.6833 452.64 75.2264 453.183 75.8903 453.183H88.782V453.389L77.532 476.269C77.1397 477.072 77.7191 478.007 78.6123 478.007H82.2939C82.7526 478.007 83.1751 477.748 83.3803 477.331L93.6164 456.436C93.6164 456.502 93.6149 456.568 93.6134 456.634C93.6119 456.702 93.6104 456.771 93.6104 456.841C93.5983 458.995 94.3105 460.716 95.7348 461.989C97.1592 463.263 99.1026 464.198 101.565 464.796L104.746 465.592C105.808 465.852 106.707 466.135 107.438 466.449C108.18 466.763 108.741 467.143 109.121 467.59C109.514 468.037 109.707 468.586 109.707 469.244C109.707 469.95 109.496 470.571 109.067 471.109C108.639 471.652 108.035 472.074 107.256 472.376C106.484 472.678 105.579 472.835 104.534 472.835C103.49 472.835 102.513 472.672 101.668 472.352C100.829 472.02 100.159 471.531 99.6578 470.885C99.3621 470.493 99.1448 470.046 99 469.545C98.825 468.936 98.318 468.435 97.6843 468.435H94.0751C93.3991 468.435 92.8439 468.996 92.9283 469.666C93.1154 471.235 93.5922 472.587 94.3708 473.722C95.3486 475.14 96.7065 476.209 98.4508 476.927C100.201 477.651 102.253 478.013 104.607 478.013C106.961 478.013 109.013 477.657 110.697 476.945C112.387 476.221 113.678 475.213 114.571 473.909C115.477 472.599 115.929 471.048 115.941 469.262C115.929 468.043 115.706 466.968 115.271 466.027C114.843 465.085 114.239 464.27 113.461 463.576L113.449 463.564ZM160.41 466.504C160.479 466.476 160.544 466.445 160.611 466.414L160.632 466.403L160.676 466.383C162.263 465.628 163.476 464.554 164.309 463.142C165.148 461.724 165.565 460.034 165.565 458.066C165.565 456.098 165.148 454.409 164.321 452.96C163.507 451.506 162.312 450.383 160.742 449.592C159.185 448.79 157.302 448.391 155.099 448.391H144.785C144.121 448.391 143.578 448.934 143.578 449.598V476.794C143.578 477.458 144.121 478.001 144.785 478.001H148.545C149.209 478.001 149.752 477.458 149.752 476.794V467.505H154.26L159.451 477.355C159.662 477.754 160.072 478.001 160.519 478.001H164.581C165.492 478.001 166.078 477.023 165.643 476.221L160.404 466.498L160.41 466.504ZM158.624 460.51C158.244 461.168 157.664 461.657 156.886 461.983C156.107 462.309 155.129 462.472 153.953 462.472H149.758V454.716C149.758 454.052 150.301 453.509 150.965 453.509H153.922C155.111 453.509 156.095 453.69 156.874 454.046C157.664 454.39 158.244 454.903 158.624 455.579C159.016 456.255 159.209 457.082 159.209 458.066C159.209 459.05 159.016 459.853 158.624 460.51ZM117.305 448.397H138.87C139.534 448.397 140.077 448.94 140.077 449.604V452.351C140.077 453.014 139.534 453.558 138.87 453.558H132.346C131.682 453.558 131.139 454.101 131.139 454.765V476.8C131.139 477.464 130.595 478.007 129.932 478.007H126.244C125.58 478.007 125.037 477.464 125.037 476.8V454.765C125.037 454.101 124.494 453.558 123.83 453.558H117.305C116.642 453.558 116.098 453.014 116.098 452.351V449.604C116.098 448.94 116.642 448.397 117.305 448.397ZM236.421 449.767C234.356 448.59 232.039 447.999 229.462 447.999C226.885 447.999 224.537 448.59 222.479 449.767C220.415 450.938 218.785 452.64 217.59 454.873C216.395 457.106 215.791 459.816 215.791 462.997C215.791 466.178 216.389 468.875 217.59 471.109C218.785 473.342 220.415 475.05 222.479 476.227C224.543 477.404 226.873 477.995 229.462 477.995C232.051 477.995 234.356 477.41 236.421 476.239C238.491 475.062 240.126 473.354 241.321 471.121C242.528 468.888 243.132 466.178 243.132 462.997C243.132 459.816 242.528 457.106 241.321 454.873C240.126 452.64 238.491 450.938 236.421 449.767ZM235.95 468.212C235.34 469.63 234.483 470.704 233.367 471.435C232.256 472.165 230.952 472.533 229.462 472.533C227.971 472.533 226.667 472.165 225.557 471.435C224.446 470.704 223.577 469.63 222.962 468.212C222.352 466.793 222.05 465.055 222.05 462.997C222.05 460.939 222.352 459.195 222.962 457.782C223.577 456.364 224.446 455.29 225.557 454.559C226.667 453.829 227.971 453.461 229.462 453.461C230.952 453.461 232.256 453.829 233.367 454.559C234.477 455.29 235.34 456.364 235.95 457.782C236.565 459.201 236.873 460.939 236.873 462.997C236.873 465.055 236.565 466.799 235.95 468.212ZM265.717 463.57C266.495 464.264 267.099 465.079 267.527 466.021H267.545C267.98 466.962 268.203 468.037 268.215 469.256C268.203 471.042 267.75 472.593 266.845 473.903C265.952 475.207 264.66 476.215 262.97 476.939C261.287 477.651 259.234 478.007 256.881 478.007C254.527 478.007 252.475 477.645 250.725 476.921C248.98 476.202 247.622 475.134 246.645 473.716C245.866 472.581 245.389 471.229 245.202 469.66C245.118 468.99 245.673 468.429 246.349 468.429H249.958C250.598 468.429 251.099 468.93 251.274 469.539C251.413 470.04 251.63 470.487 251.926 470.879C252.427 471.525 253.096 472.014 253.935 472.346C254.78 472.666 255.758 472.829 256.802 472.829C257.846 472.829 258.752 472.672 259.524 472.37C260.303 472.068 260.906 471.646 261.335 471.103C261.763 470.565 261.975 469.944 261.975 469.238C261.975 468.58 261.781 468.031 261.389 467.584C261.009 467.137 260.448 466.757 259.705 466.443C258.975 466.129 258.076 465.846 257.013 465.586L253.833 464.789C251.37 464.192 249.427 463.257 248.003 461.983C246.578 460.71 245.866 458.989 245.878 456.835C245.872 455.066 246.343 453.521 247.29 452.2C248.25 450.878 249.566 449.846 251.238 449.103C252.909 448.361 254.774 447.993 256.941 447.993C259.108 447.993 260.997 448.361 262.614 449.103C264.238 449.846 265.499 450.878 266.405 452.2C267.087 453.201 267.521 454.324 267.702 455.567C267.799 456.237 267.25 456.793 266.574 456.793H262.976C262.355 456.793 261.86 456.31 261.643 455.73C261.401 455.079 260.991 454.535 260.411 454.113C259.548 453.479 258.377 453.159 256.893 453.159C255.885 453.159 255.034 453.304 254.34 453.588C253.646 453.859 253.109 454.246 252.74 454.741C252.378 455.235 252.197 455.797 252.197 456.424C252.179 456.949 252.288 457.402 252.523 457.794C252.771 458.187 253.109 458.525 253.537 458.808C253.966 459.08 254.46 459.321 255.022 459.533C255.583 459.732 256.187 459.901 256.82 460.046L259.446 460.673C260.719 460.957 261.89 461.337 262.952 461.814C264.015 462.291 264.938 462.876 265.717 463.57ZM186.218 449.218C186.049 448.729 185.59 448.397 185.077 448.397H178.849C178.33 448.397 177.871 448.729 177.708 449.218L168.45 476.414C168.184 477.198 168.763 478.007 169.59 478.007H173.64C174.165 478.007 174.63 477.669 174.787 477.168L176.682 471.253H187.226L189.121 477.168C189.284 477.669 189.749 478.007 190.268 478.007H194.317C195.144 478.007 195.724 477.192 195.458 476.414L186.212 449.218H186.218ZM178.251 466.371L181.812 455.278C181.83 455.211 181.891 455.169 181.963 455.169C182.035 455.169 182.09 455.211 182.114 455.278L185.669 466.371H178.257H178.251ZM216.564 449.604V452.351C216.564 453.014 216.021 453.558 215.357 453.558H208.833C208.169 453.558 207.626 454.101 207.626 454.765V476.8C207.626 477.464 207.082 478.007 206.418 478.007H202.731C202.067 478.007 201.524 477.464 201.524 476.8V454.765C201.524 454.101 200.981 453.558 200.317 453.558H193.792C193.128 453.558 192.585 453.014 192.585 452.351V449.604C192.585 448.94 193.128 448.397 193.792 448.397H215.357C216.021 448.397 216.564 448.94 216.564 449.604Z" fill="white"/>
</svg>
