<?xml version="1.0" standalone="no"?>
<!DOCTYPE svg PUBLIC "-//W3C//DTD SVG 20010904//EN"
 "http://www.w3.org/TR/2001/REC-SVG-20010904/DTD/svg10.dtd">
<svg version="1.0" xmlns="http://www.w3.org/2000/svg"
 width="726.000000pt" height="730.000000pt" viewBox="0 0 726.000000 730.000000"
 preserveAspectRatio="xMidYMid meet">

<g transform="translate(0.000000,730.000000) scale(0.100000,-0.100000)"
fill="#000000" stroke="none">
<path d="M699 5946 c-40 -14 -75 -45 -105 -91 -18 -28 -19 -50 -19 -300 l0
-270 32 -46 c21 -30 48 -54 77 -68 46 -21 47 -21 1031 -21 768 0 985 -3 985
-12 0 -7 -27 -67 -59 -133 -33 -66 -139 -282 -236 -480 -97 -198 -251 -511
-342 -695 -91 -184 -226 -459 -300 -610 -203 -412 -411 -835 -599 -1215 -150
-304 -168 -346 -172 -401 -7 -97 40 -169 127 -195 23 -7 151 -9 361 -7 l325 3
35 25 c19 13 41 31 47 40 14 16 86 160 295 590 71 146 188 384 260 530 72 146
186 379 254 518 68 138 180 366 248 505 68 138 168 342 221 452 219 450 258
526 266 513 5 -7 9 -43 9 -80 0 -152 66 -350 167 -500 116 -172 382 -370 631
-469 12 -5 33 -13 47 -19 14 -5 35 -14 48 -19 12 -4 33 -13 47 -19 14 -5 45
-15 70 -22 25 -7 54 -16 65 -20 11 -5 34 -11 50 -15 17 -3 47 -10 68 -15 97
-25 115 -30 155 -40 23 -5 61 -15 85 -20 23 -6 59 -15 80 -20 37 -10 83 -21
155 -39 20 -5 55 -15 77 -21 22 -6 51 -14 65 -16 14 -3 34 -9 45 -13 11 -5 52
-18 90 -30 82 -26 95 -31 153 -60 24 -11 48 -21 53 -21 22 0 159 -102 190
-141 69 -88 81 -123 82 -240 0 -63 -5 -120 -12 -140 -42 -110 -96 -179 -198
-248 -302 -205 -872 -193 -1159 25 -27 21 -68 58 -91 83 -45 48 -123 189 -123
221 0 10 -4 22 -10 25 -5 3 -10 14 -10 24 0 26 -62 93 -110 119 -41 21 -49 22
-361 22 -306 0 -320 -1 -356 -21 -113 -63 -126 -151 -61 -394 53 -198 156
-394 276 -526 17 -19 39 -43 49 -54 57 -64 248 -204 321 -236 17 -8 32 -17 32
-21 0 -5 4 -8 10 -8 5 0 38 -13 72 -28 35 -16 79 -34 98 -41 19 -7 44 -17 55
-21 11 -5 31 -11 45 -15 14 -3 41 -11 60 -16 83 -24 140 -36 275 -59 33 -6
146 -15 251 -22 254 -15 570 2 754 41 107 23 235 57 265 70 11 5 36 15 55 22
81 29 212 97 310 163 185 123 334 293 422 481 10 22 23 48 28 57 6 10 10 25
10 33 0 8 4 23 9 33 18 37 40 128 62 257 12 77 7 294 -10 385 -6 30 -13 72
-17 93 -3 20 -10 40 -15 43 -5 3 -9 14 -9 25 0 10 -4 27 -9 37 -5 9 -14 29
-20 45 -24 60 -37 84 -63 124 -15 23 -28 44 -28 48 0 3 -12 23 -27 43 -115
155 -261 281 -448 388 -77 44 -146 76 -242 115 -13 5 -33 13 -45 19 -76 32
-241 81 -373 110 -22 5 -59 14 -82 19 -24 6 -62 16 -85 22 -24 5 -61 14 -83
19 -22 5 -60 14 -85 20 -25 6 -63 15 -85 20 -37 8 -75 18 -150 40 -16 5 -41
12 -55 15 -14 4 -35 11 -47 16 -13 5 -35 14 -50 20 -16 6 -36 15 -45 20 -10 5
-25 9 -33 9 -8 0 -15 3 -15 8 0 4 -15 13 -32 21 -93 40 -186 128 -228 217 -27
56 -30 72 -30 160 0 101 8 135 49 214 53 101 198 200 346 238 112 28 147 32
294 32 229 0 347 -27 490 -111 85 -49 170 -144 208 -229 52 -119 69 -142 136
-179 36 -20 51 -21 364 -21 l326 0 42 25 c60 35 85 81 85 157 0 34 -4 75 -9
92 -5 17 -15 51 -22 76 -15 58 -68 196 -90 235 -44 80 -66 115 -108 170 -53
70 -178 197 -236 240 -22 17 -48 37 -58 46 -9 9 -30 22 -45 30 -15 8 -29 16
-32 19 -15 15 -109 63 -220 112 -25 11 -53 24 -62 29 -10 5 -27 9 -37 9 -11 0
-22 4 -25 9 -3 5 -18 11 -33 14 -16 3 -46 11 -68 17 -95 27 -220 48 -360 60
-61 5 -1119 9 -2365 9 -1819 0 -2262 -2 -2291 -13z"/>
</g>
</svg>
